<svg id="Capa_1" enable-background="new 0 0 511.983 511.983" height="512" viewBox="0 0 511.983 511.983" width="512" xmlns="http://www.w3.org/2000/svg"><g id="XMLID_1724_"><path id="XMLID_1609_" d="m423.277 501.983h-334.572c-18.344 0-33.214-14.87-33.214-33.214v-334.572c0-18.343 14.87-33.214 33.214-33.214h334.572c18.344 0 33.214 14.87 33.214 33.214v334.572c0 18.343-14.87 33.214-33.214 33.214z" fill="#fff59d"/><g id="XMLID_1218_"><path id="XMLID_436_" d="m255.991 426.527c-51.831 0-94-42.168-94-94 0-5.523 4.477-10 10-10s10 4.477 10 10c0 40.804 33.196 74 74 74s74-33.196 74-74c0-5.523 4.477-10 10-10 5.522 0 10 4.477 10 10 0 51.831-42.168 94-94 94z"/></g><circle id="XMLID_1641_" cx="171.991" cy="250.772" fill="#2bbbad" r="24"/><circle id="XMLID_1640_" cx="339.991" cy="250.772" fill="#2bbbad" r="24"/><g id="XMLID_1219_"><path id="XMLID_433_" d="m171.991 284.772c-18.748 0-34-15.253-34-34 0-18.748 15.252-34 34-34s34 15.252 34 34c0 18.747-15.252 34-34 34zm0-48c-7.72 0-14 6.28-14 14s6.28 14 14 14 14-6.28 14-14-6.28-14-14-14z"/></g><g id="XMLID_1221_"><path id="XMLID_430_" d="m339.991 284.772c-18.748 0-34-15.253-34-34 0-18.748 15.252-34 34-34s34 15.252 34 34c0 18.747-15.252 34-34 34zm0-48c-7.72 0-14 6.28-14 14s6.28 14 14 14 14-6.28 14-14-6.28-14-14-14z"/></g><g id="XMLID_1266_"><g id="XMLID_982_"><path id="XMLID_429_" d="m287.609 167.083c-2.56 0-5.118-.976-7.071-2.929l-39.11-39.111c-3.905-3.905-3.905-10.237.001-14.142 3.905-3.904 10.237-3.905 14.142 0l39.11 39.111c3.905 3.905 3.905 10.237 0 14.142-1.954 1.953-4.514 2.929-7.072 2.929z"/></g><path id="XMLID_1220_" d="m185.111 17.806-37.013 37.014c-10.432 10.432-10.432 27.345 0 37.777 9.47 9.47 24.267 10.313 34.722 2.588l44.233 44.233 42.666-42.666-44.234-44.234c7.716-10.454 6.871-25.244-2.596-34.712-10.433-10.431-27.346-10.431-37.778 0z" fill="#ee6e73"/><path id="XMLID_449_" d="m423.277 90.983h-145.403c-.322-.455-.677-.893-1.084-1.301l-38.923-38.922c5.525-13.42 2.69-29.426-7.908-40.024-14.313-14.313-37.604-14.313-51.919 0 0 0 0 0-.001 0l-37.014 37.014c-11.684 11.684-13.825 29.35-6.432 43.233h-45.888c-23.828 0-43.214 19.386-43.214 43.214v334.572c0 23.828 19.386 43.214 43.214 43.214h122.287c5.523 0 10-4.477 10-10s-4.477-10-10-10h-122.287c-12.8 0-23.214-10.414-23.214-23.214v-334.572c0-12.8 10.414-23.214 23.214-23.214h95.769l35.507 35.507c1.876 1.875 4.419 2.929 7.071 2.929s5.196-1.054 7.071-2.929l35.506-35.507h153.647c12.8 0 23.214 10.414 23.214 23.214v334.572c0 12.8-10.414 23.214-23.214 23.214h-122.285c-5.523 0-10 4.477-10 10s4.477 10 10 10h122.286c23.828 0 43.214-19.386 43.214-43.214v-334.572c0-23.829-19.385-43.214-43.214-43.214zm-196.225 34.294-37.162-37.162c-1.938-1.938-4.499-2.929-7.074-2.929-2.076 0-4.163.645-5.939 1.957-6.589 4.867-15.921 4.172-21.709-1.616-6.516-6.517-6.516-17.119 0-23.635l37.013-37.014c6.517-6.516 17.12-6.516 23.635 0 5.786 5.786 6.483 15.115 1.621 21.702-2.938 3.98-2.523 9.511.975 13.009l37.163 37.164z"/></g><g id="XMLID_1716_"><g id="XMLID_1717_"><path id="XMLID_425_" d="m255.991 511.983c-2.63 0-5.21-1.07-7.07-2.93s-2.93-4.44-2.93-7.07 1.07-5.21 2.93-7.07 4.44-2.93 7.07-2.93 5.21 1.07 7.069 2.93c1.86 1.86 2.931 4.44 2.931 7.07s-1.07 5.21-2.931 7.07c-1.859 1.859-4.439 2.93-7.069 2.93z"/></g></g></g></svg>